<?xml version="1.0" encoding="utf-8"?>
<!-- Generator: Adobe Illustrator 26.2.1, SVG Export Plug-In . SVG Version: 6.00 Build 0)  -->
<svg version="1.1" xmlns="http://www.w3.org/2000/svg" xmlns:xlink="http://www.w3.org/1999/xlink" x="0px" y="0px"
	 viewBox="0 0 134 176" style="enable-background:new 0 0 134 176;" xml:space="preserve">
<style type="text/css">
	.st0{display:none;}
	.st1{display:inline;}
	.st2{fill:#D84315;}
	.st3{fill:#FFFFFF;}
</style>
<g id="Layer_1" class="st0">
	<g class="st1">
		<path class="st2" d="M62.3,262.8L-67.8,132.7c-0.7-0.7-1.2-1.7-1.2-2.8c0-2.1,1.7-3.9,3.9-3.9h78.4V-93.1c0-2.1,1.7-3.9,3.9-3.9
			h95.8c2.1,0,3.9,1.7,3.9,3.9v219.2h78.4l0,0c1,0,2,0.4,2.7,1.1c1.5,1.5,1.5,4,0,5.5l0,0L67.8,262.8l0,0
			C66.3,264.3,63.8,264.3,62.3,262.8L62.3,262.8L62.3,262.8L62.3,262.8z"/>
	</g>
</g>
<g id="Layer_2">
	<g>
		<image style="overflow:visible;opacity:0.75;" width="134" height="176" xlink:href="673F242FA5AA0190.png" >
		</image>
		<g>
			<path class="st3" d="M82,8.4H42v93.3H8L60.3,154l51.7-51.7H81.1C81.1,102.3,82,5.2,82,8.4z"/>
		</g>
	</g>
</g>
</svg>
