<?xml version="1.0" encoding="UTF-8"?>
<svg width="32mm" height="31.557mm" version="1.1" viewBox="0 0 113.38582 111.81719" xmlns="http://www.w3.org/2000/svg" xmlns:xlink="http://www.w3.org/1999/xlink">
 <defs>
  <pattern id="o" patternTransform="scale(.6125 .5625)" xlink:href="#a"/>
  <pattern id="n" patternTransform="scale(.575 .7625)" xlink:href="#a"/>
  <pattern id="m" patternTransform="scale(.67503 .68387)" xlink:href="#a"/>
  <pattern id="l" patternTransform="scale(.89064 .83761)" xlink:href="#a"/>
  <pattern id="a" width="10" height="10" patternTransform="translate(0) scale(10)" patternUnits="userSpaceOnUse">
   <circle cx="2.567" cy=".81" r=".45"/>
   <circle cx="3.048" cy="2.33" r=".45"/>
   <circle cx="4.418" cy="2.415" r=".45"/>
   <circle cx="1.844" cy="3.029" r=".45"/>
   <circle cx="6.08" cy="1.363" r=".45"/>
   <circle cx="5.819" cy="4.413" r=".45"/>
   <circle cx="4.305" cy="4.048" r=".45"/>
   <circle cx="5.541" cy="3.045" r=".45"/>
   <circle cx="4.785" cy="5.527" r=".45"/>
   <circle cx="2.667" cy="5.184" r=".45"/>
   <circle cx="7.965" cy="1.448" r=".45"/>
   <circle cx="7.047" cy="5.049" r=".45"/>
   <circle cx="4.34" cy=".895" r=".45"/>
   <circle cx="7.125" cy=".34" r=".45"/>
   <circle cx="9.553" cy="1.049" r=".45"/>
   <circle cx="7.006" cy="2.689" r=".45"/>
   <circle cx="8.909" cy="2.689" r=".45"/>
   <circle cx="9.315" cy="4.407" r=".45"/>
   <circle cx="7.82" cy="3.87" r=".45"/>
   <circle cx="8.27" cy="5.948" r=".45"/>
   <circle cx="7.973" cy="7.428" r=".45"/>
   <circle cx="9.342" cy="8.072" r=".45"/>
   <circle cx="8.206" cy="9.315" r=".45"/>
   <circle cx="9.682" cy="9.475" r=".45"/>
   <circle cx="9.688" cy="6.186" r=".45"/>
   <circle cx="3.379" cy="6.296" r=".45"/>
   <circle cx="2.871" cy="8.204" r=".45"/>
   <circle cx="4.59" cy="8.719" r=".45"/>
   <circle cx="3.181" cy="9.671" r=".45"/>
   <circle cx="5.734" cy="7.315" r=".45"/>
   <circle cx="6.707" cy="6.513" r=".45"/>
   <circle cx="5.73" cy="9.67" r=".45"/>
   <circle cx="6.535" cy="8.373" r=".45"/>
   <circle cx="4.37" cy="7.154" r=".45"/>
   <circle cx=".622" cy="7.25" r=".45"/>
   <circle cx=".831" cy="5.679" r=".45"/>
   <circle cx="1.257" cy="8.519" r=".45"/>
   <circle cx="1.989" cy="6.877" r=".45"/>
   <circle cx=".374" cy="3.181" r=".45"/>
   <circle cx="1.166" cy="1.664" r=".45"/>
   <circle cx="1.151" cy=".093" r=".45"/>
   <circle cx="1.151" cy="10.093" r=".45"/>
   <circle cx="1.302" cy="4.451" r=".45"/>
   <circle cx="3.047" cy="3.763" r=".45"/>
  </pattern>
  <pattern id="k" xlink:href="#j" patternTransform="matrix(1.9453 0 0 1.9934 -4.4984 -4.3452)"/>
  <pattern id="j" width="10" height="10" patternTransform="translate(0) scale(10)" patternUnits="userSpaceOnUse">
   <circle cx="2.567" cy=".81" r=".15"/>
   <circle cx="3.048" cy="2.33" r=".15"/>
   <circle cx="4.418" cy="2.415" r=".15"/>
   <circle cx="1.844" cy="3.029" r=".15"/>
   <circle cx="6.08" cy="1.363" r=".15"/>
   <circle cx="5.819" cy="4.413" r=".15"/>
   <circle cx="4.305" cy="4.048" r=".15"/>
   <circle cx="5.541" cy="3.045" r=".15"/>
   <circle cx="4.785" cy="5.527" r=".15"/>
   <circle cx="2.667" cy="5.184" r=".15"/>
   <circle cx="7.965" cy="1.448" r=".15"/>
   <circle cx="7.047" cy="5.049" r=".15"/>
   <circle cx="4.34" cy=".895" r=".15"/>
   <circle cx="7.125" cy=".34" r=".15"/>
   <circle cx="9.553" cy="1.049" r=".15"/>
   <circle cx="7.006" cy="2.689" r=".15"/>
   <circle cx="8.909" cy="2.689" r=".15"/>
   <circle cx="9.315" cy="4.407" r=".15"/>
   <circle cx="7.82" cy="3.87" r=".15"/>
   <circle cx="8.27" cy="5.948" r=".15"/>
   <circle cx="7.973" cy="7.428" r=".15"/>
   <circle cx="9.342" cy="8.072" r=".15"/>
   <circle cx="8.206" cy="9.315" r=".15"/>
   <circle cx="9.682" cy="9.475" r=".15"/>
   <circle cx="9.688" cy="6.186" r=".15"/>
   <circle cx="3.379" cy="6.296" r=".15"/>
   <circle cx="2.871" cy="8.204" r=".15"/>
   <circle cx="4.59" cy="8.719" r=".15"/>
   <circle cx="3.181" cy="9.671" r=".15"/>
   <circle cx="5.734" cy="7.315" r=".15"/>
   <circle cx="6.707" cy="6.513" r=".15"/>
   <circle cx="5.73" cy="9.67" r=".15"/>
   <circle cx="6.535" cy="8.373" r=".15"/>
   <circle cx="4.37" cy="7.154" r=".15"/>
   <circle cx=".622" cy="7.25" r=".15"/>
   <circle cx=".831" cy="5.679" r=".15"/>
   <circle cx="1.257" cy="8.519" r=".15"/>
   <circle cx="1.989" cy="6.877" r=".15"/>
   <circle cx=".374" cy="3.181" r=".15"/>
   <circle cx="1.166" cy="1.664" r=".15"/>
   <circle cx="1.151" cy=".093" r=".15"/>
   <circle cx="1.151" cy="10.093" r=".15"/>
   <circle cx="1.302" cy="4.451" r=".15"/>
   <circle cx="3.047" cy="3.763" r=".15"/>
  </pattern>
  <radialGradient id="p" cx="51.468" cy="138.86" r="10.069" gradientTransform="matrix(1.1228 -.0061842 .017005 3.0876 -7.6689 -351.47)" gradientUnits="userSpaceOnUse">
   <stop stop-color="#ffcb00" stop-opacity="0" offset="0"/>
   <stop stop-color="#b78d2e" stop-opacity=".59629" offset="1"/>
  </radialGradient>
  <radialGradient id="q" cx="98.111" cy="127.2" r="4.125" gradientTransform="matrix(1 0 0 1.1061 -57.606 -98.54)" gradientUnits="userSpaceOnUse">
   <stop stop-color="#b78d2e" offset="0"/>
   <stop stop-color="#b78d2e" stop-opacity="0" offset="1"/>
  </radialGradient>
 </defs>
 <g transform="translate(3.5433 2.759)" fill-rule="evenodd">
  <path d="m61.569 46.624-3.8607 3.5335c-2.3785 2.6174-2.5397 6.4781-2.8792 9.0955l-2.4865-8.0486c-1.4396-2.1723-2.8792-2.9859-4.3187-3.7953-2.2765-0.52236-4.1248-0.33114-6.8707-1.6359-0.16655-5.5442 0.34108-11.425 1.5705-17.668 1.6532-6.0677 2.7377-12.16 8.2449-18.06 3.3964-4.8764 7.894-6.009 12.106-8.114 3.0104-0.74271 5.5534 0.072443 8.0486 1.047 0.68612 1.1168 1.7787 1.9174 0.98153 4.1879l-3.4026 8.3757c-2.8525 5.3334-4.4911 9.8575-6.3472 14.527-1.5549 5.8827-1.4648 7.7703-1.8976 10.928-0.05095 1.3656 0.02655 2.3136 0.17133 3.0431" fill="#ffefbf" stroke="#55d400" stroke-width=".3042"/>
  <path d="m60.391 43.876c0-0.65436 0.13087-3.7953 0.13087-3.7953l4.1879-3.5335c1.1635-0.52286 2.6858 0.03073 4.1879 0.52348 1.869 0.83687 2.2262 1.9135 1.3087 3.7953l7.3288-0.52348c3.0189 0.41858 5.6976 1.5175 8.3757 2.6174l8.2449 6.5436 8.7684 10.47c0.8417 2.099 2.2031 2.639 2.0939 7.5905l-3.1409 1.047-2.7483-7.3288-10.077-6.8053c-6.5499-4.2109-11.069-5.7139-15.574-7.1979 3.5628 6.4571 7.7146 10.854 9.2918 13.087l-3.1409 1.9631-5.104-4.8422c-3.7712-0.73405-6.9984-2.2841-10.077-4.057l0.52348 6.6744 6.0201 25.651c0.85762 3.628 0.93045 7.0597 0.39261 10.339-0.19484 2.1426-1.0269 4.4446-2.6174 6.9362l-5.4966-0.13087c-2.1812 0.64056-4.3624-1.4484-6.5436-2.7483-2.7483-3.2544-5.4966-5.5479-8.2449-12.433-1.9631-4.9191-3.9261-8.859-5.8892-17.406l-2.2248-9.9462-0.78523 7.8523-0.39261 10.339c-0.4383 5.3006-0.81344 8.7803 0.78523 13.741 0.16693 3.7175-1.6396 3.0934-3.1409 3.1409l-3.7953-7.4596c-2.1812-3.5392-4.3624-7.1333-6.5436-12.04-2.1049-6.3159-2.2463-10.423-1.5705-13.611-0.56716-4.4642 1.023-7.4901 2.4865-10.601 2.9338-4.6781 6.2908-6.3936 9.5536-8.7684-0.4963-2.0296-2.429-3.7719-6.4127-5.104-2.2376 0.18878-2.7785-0.9878-8.7684 2.3557-2.9267 3.2301-4.5295 5.7983-5.3657 7.9831l-4.1879 10.601-6.0201 8.114c-0.56711 1.3408-1.1342 2.3147-1.7013 4.9731l-0.26174 5.2348-3.6644-1.7013 1.047-8.8992 5.6275-8.8992c1.1778-3.458 2.3557-6.5591 3.5335-10.993 1.5705-4.6853 3.1409-6.8261 4.7114-8.7684 3.6277-4.149 6.8975-4.615 10.208-6.5436l7.7214 0.13087c3.9419 1.362 6.4829 3.5246 7.9831 6.2818l-0.13087 7.7214c1.8316 1.0893 3.3543 1.5611 4.8422 1.9631l4.1879 1.1778c2.9856 4.0802 3.2808 5.9186 4.3187 8.3757 0.60706-2.1042 0.57104-3.4581 3.1409-7.8523l4.057-2.6174" fill="#ffcb00" stroke="#f0f" stroke-width=".3042"/>
  <path d="m45.75 47.799s2.8122 0.023 5.4399 1.7475c-3.5242 5.4231-4.5935 19.088-3.9399 25.127 0.49062 4.534 4.2871 11.097 6.92 16.224 3.35 6.5229 7.8099 11.512 6.83 11.651 0 0-4.5818-2.4355-8.125-7s-7.5244-14.701-9.25-21c-1.7256-6.2987-2.651-11.873-2.625-15.75 0.02604-3.8774 1.1325-6.1444 2.125-8 0.99255-1.8556 2.625-3 2.625-3z" fill="url(#p)"/>
  <path d="m43.532 46.707s-2.6971 3.3934-3.5 5.375c-1.9608 4.8395-1.8896 9.2447-2.4375 14.438-0.24924 2.3622 0.52397 6.0236 0.1875 8.375-0.84101 5.8774-1.6875 14.188-0.375 16.562l2.625 2.125c-0.47134-1.9453-1.6631-3.1702-1.375-5.875l-0.5-3.625 1.1875-8.625-0.0625-10.625c0.37612-3.5422 0.54691-6.9818 1.875-11 0.73337-2.238 1.8979-4.428 4.125-6.5z" fill="#ffe087"/>
  <path d="m60.373 43.758c0-0.65436 0.13087-3.7953 0.13087-3.7953l4.1879-3.5335c1.1635-0.52286 2.6858 0.03073 4.1879 0.52348 1.869 0.83687 2.2262 1.9135 1.3087 3.7953l7.3288-0.52348c3.0189 0.41858 5.6976 1.5175 8.3757 2.6174l8.2449 6.5436 8.7684 10.47c0.8417 2.099 2.2031 2.639 2.0939 7.5905l-3.1409 1.047-2.7483-7.3288-10.077-6.8053c-6.5499-4.2109-11.069-5.7139-15.574-7.1979 3.5628 6.4571 7.7146 10.854 9.2918 13.087l-3.1409 1.9631-5.104-4.8422c-3.7712-0.73405-6.9984-2.2841-10.077-4.057l0.52348 6.6744 6.0201 25.651c0.85762 3.628 0.93045 7.0597 0.39261 10.339-0.19484 2.1426-1.0269 4.4446-2.6174 6.9362l-5.4966-0.13088c-2.1812 0.64057-4.3624-1.4484-6.5436-2.7483-2.7483-3.2544-5.4966-5.5479-8.2449-12.433-1.9631-4.9191-3.9261-8.859-5.8892-17.406l-2.2248-9.9462-0.78523 7.8523-0.39261 10.339c-0.4383 5.3006-0.81344 8.7803 0.78523 13.741 0.16693 3.7175-1.6396 3.0934-3.1409 3.1409l-3.7953-7.4596c-2.1812-3.5392-4.3624-7.1333-6.5435-12.04-2.1049-6.3159-2.2463-10.423-1.5705-13.611-0.56716-4.4642 1.023-7.4901 2.4865-10.601 2.9338-4.6781 6.2908-6.3936 9.5536-8.7684-0.4963-2.0296-2.429-3.7719-6.4127-5.104-2.2376 0.18878-2.7785-0.9878-8.7684 2.3557-2.9267 3.2301-4.5295 5.7983-5.3657 7.9831l-4.1879 10.601-6.0201 8.114c-0.56711 1.3408-1.1342 2.3146-1.7013 4.9731l-0.26174 5.2348-3.6644-1.7013 1.047-8.8992 5.6275-8.8992c1.1778-3.458 2.3557-6.5591 3.5335-10.993 1.5705-4.6853 3.1409-6.8261 4.7114-8.7684 3.6277-4.149 6.8975-4.615 10.208-6.5436l7.7214 0.13087c3.9419 1.362 6.4829 3.5246 7.9831 6.2818l-0.13087 7.7214c1.8316 1.0893 3.3543 1.5611 4.8422 1.9631l4.1879 1.1778c2.9856 4.0802 3.2808 5.9186 4.3187 8.3757 0.60705-2.1042 0.57104-3.4581 3.1409-7.8523l4.057-2.6174" fill="url(#k)" opacity=".19" stroke="#f0f" stroke-width=".3042"/>
  <path d="m38.331 44.953s-1.6038 2.0304-3.3802 4.6664-4.1604 5.9268-4.8888 8.4653c-1.6362 5.7017-1.0838 11.649-0.24579 17.417 0.30545 2.1025 1.6644 5.6143 2.7307 8.152s3.5535 9.9133 3.5535 9.9133c1.3854-0.13323 2.6164-0.72937 3.6226-2.0002 0 0-1.6796-3.4225-2.9305-5.7571-0.54018-1.0082-0.73385-1.0923-0.79232-1.7115-0.24854-2.6319-1.153-6.1951-1.0637-8.1025 0.18068-3.8585-0.08153-7.1868 0.1002-10.969 0.14179-2.9507 0.63448-6.0109 1.4887-8.8297 0.29632-0.97786 1.1119-2.4623 1.8506-3.6603 0.73871-1.198 2.2501-3.9948 2.2501-3.9948s-2.3823 2.2166-3.1396 3.4447c-0.75733 1.2282-1.6018 2.7133-1.9631 3.9057-0.88276 2.9131-1.3859 6.0515-1.5316 9.0833-0.18542 3.8586 0.07692 7.1882-0.10019 10.971-0.10981 2.3451 0.19557 5.8271 0.47032 8.5189-0.31103-0.68931-0.34074-0.7016-0.70752-1.5745-1.0538-2.5082-2.5303-5.5322-2.8014-7.3983-0.83086-5.719-1.2794-11.804 0.28628-17.26 0.65364-2.2778 2.5724-5.6415 4.3249-8.242s3.4043-4.7453 3.4043-4.7453z" color="#000000" color-rendering="auto" fill="#dbb911" image-rendering="auto" shape-rendering="auto" solid-color="#000000" style="block-progression:tb;isolation:auto;mix-blend-mode:normal;text-decoration-color:#000000;text-decoration-line:none;text-decoration-style:solid;text-indent:0;text-transform:none;white-space:normal"/>
  <path d="m71.317 3.4775c-4.2695 1.147-8.7236 2.4654-11.965 5.6753-5.0227 4.974-8.7114 11.246-10.853 17.94-1.8191 5.685-3.1736 13.414-3.6146 19.332 0.35981 0.24779 0.78523 0.46974 1.4534 0.44022-0.05902-4.1934 0.81212-8.3319 1.5057-12.449 1.4141-8.3932 4.9923-16.508 10.707-22.869 2.1231-2.3633 4.651-4.4811 7.7519-5.3656 1.0545-0.30078 3.7349-1.5974 3.9059-0.97583-2.5596 4.5767-5.5871 8.8729-8.1622 13.436-3.4077 6.0384-5.4769 12.805-6.5623 19.636-0.93242 5.8687-1.3051 11.812-1.5987 17.744 1.6648 0.58069 1.0698-1.311 1.2421-2.3799 0.56913-8.4281 1.2023-16.956 3.8741-25.042 1.7224-5.2126 4.2517-10.09 7.2619-14.663 2.059-3.1279 3.8878-6.4013 5.768-9.6397-0.37785-0.2036-0.71592-0.32433-0.71366-0.81999z" color="#000000" color-rendering="auto" fill="#c7a387" fill-opacity=".35686" image-rendering="auto" shape-rendering="auto" solid-color="#000000" style="block-progression:tb;isolation:auto;mix-blend-mode:normal;text-decoration-color:#000000;text-decoration-line:none;text-decoration-style:solid;text-indent:0;text-transform:none;white-space:normal"/>
  <path d="m43.875 47.049s-2.6971 3.3934-3.5 5.375c-1.9608 4.8395-1.8896 9.2447-2.4375 14.438-0.24924 2.3623 0.52397 6.0236 0.1875 8.375-0.84101 5.8774-1.6875 14.188-0.375 16.562l2.625 2.125c-0.47134-1.9453-1.6631-3.1702-1.375-5.875l-0.5-3.625 1.1875-8.625-0.0625-10.625c0.37612-3.5422 0.54691-6.9818 1.875-11 0.73337-2.238 1.8979-4.428 4.125-6.5z" fill="url(#l)" opacity=".387"/>
  <path d="m54.5 52.299s3.5009-5.2876 6.0303-7.0214c2.1763-1.4918 4.4577-2.5702 7.0947-2.4786 4.7283 0.16427 9.402 2.0286 13.64 4.1313 6.3358 3.1433 18.634 12.067 18.634 12.067l4.476 4.0518 0.5 5.25-3.125 0.375-1.75-4.75-2-3.375s-6.9677-5.171-11.372-7.6464c-3.7038-2.0815-8.8743-4.681-12.878-6.1036-2.2102-0.78537-4.5308-1.5809-6.875-1.5-2.0821 0.07184-4.3123 0.52857-6 1.75-2.7432 1.9853-4.8661 4.3975-5.75 8.375-0.53033-1.4142-0.625-3.125-0.625-3.125z" fill="#ffe087"/>
  <path d="m54.5 52.299s3.5009-5.2876 6.0303-7.0214c2.1763-1.4918 4.4577-2.5702 7.0947-2.4786 4.7283 0.16427 9.402 2.0286 13.64 4.1313 6.3358 3.1433 18.634 12.067 18.634 12.067l4.476 4.0518 0.5 5.25-3.125 0.375-1.75-4.75-2-3.375s-6.9677-5.171-11.372-7.6464c-3.7038-2.0815-8.8743-4.681-12.878-6.1036-2.2102-0.78537-4.5308-1.5809-6.875-1.5-2.0821 0.07184-4.3123 0.52857-6 1.75-2.7432 1.9853-4.8661 4.3975-5.75 8.375-0.53033-1.4142-0.625-3.125-0.625-3.125z" fill="url(#m)" opacity=".296"/>
  <path d="m45.75 47.799s2.8122 0.02299 5.4399 1.7475c-3.5242 5.4231-4.5935 19.088-3.9399 25.127 0.49062 4.534 4.2871 11.097 6.92 16.224 3.35 6.5229 7.8099 11.512 6.83 11.651 0 0-4.5818-2.4355-8.125-7s-7.5244-14.701-9.25-21-2.651-11.873-2.625-15.75c0.02604-3.8775 1.1325-6.1444 2.125-8s2.625-3 2.625-3z" fill="url(#n)" opacity=".235"/>
  <path d="m41.625 37.174-0.5 8.125s-2.875-0.875-3.25-1.75-4.5-4.625-4.5-4.625c0.69116-2.2062 6.1421 1.0015 6.5-2.75z" fill="url(#o)" opacity=".32"/>
  <path d="m29 30.445c-8.1245 0.15297-15.241 6.2013-17.965 13.913-1.4997 4.2462-2.5474 8.5811-4.3589 12.67-1.5179 3.4261-4.7944 6.1204-5.9357 9.59-0.59613 3.5971-0.80079 6.6461-0.72647 9.3045 1.3925 2.0574 3.6694 2.1234 5.5929 1.7913 0.20461-2.4901 0.00988-4.675 0.56731-7.0814 1.2103-2.4808 2.3753-4.3496 4.3027-6.4567 4.222-4.6156 5.0719-11.019 7.9836-16.488 2.0834-3.9131 5.2762-8.4367 9.8679-8.5065 2.5262-0.03836 7.9825 1.2902 7.5642 3.8299-4.7216 2.4398-8.775 6.2179-10.506 11.447-3.1771 9.5979-1.7631 20.313 3.7158 28.741 2.7838 4.2825 5.5594 8.6438 7.0768 13.576 3.4959 0.63561 6.7562-2.8719 3.9891-5.8937-1.7291-4.7383-0.2923-9.7806 0.18109-14.617 0.24179-2.4702 0.32918-10.147 0.35695-13.288 1.9879 11.683 6.2308 27.425 13.998 36.48 1.2388 1.4442 2.3295 2.8805 4.8126 3.6441 2.6152 0.80427 4.1517 2.5144 5.0783 2.4089 1.7543-2.0321 2.3083-1.0897 4.2488-0.68612 1.9783-3.6563 4.1838-8.9789 3.89-13.387-0.70618-10.595-4.9024-19.737-6.3105-30.688-0.27925-2.1717-2.9445-7.8465 0.98999-4.9038 2.4799 1.8548 6.1261 1.1962 8.4132 3.55l3.5932 3.698c1.9557 0.14294 3.8739 0.1545 5.3023-1.548-3.3199-4.261-7.2922-8.1383-9.7478-12.973 8.6071 3.2073 16.766 7.759 23.763 13.718 1.4771 1.9339 1.5975 4.6444 2.4881 6.914 0.1118 2.2677 5.0143 0.10627 5.0729-0.98798-0.87384-3.9793-1.8138-8.0532-4.4906-11.358-4.4227-5.4598-9.0601-10.86-15.364-14.204-4.1881-2.222-9.8546-3.8536-14.656-2.3958-0.21644-6.4708-10.237-5.6863-11.439 0.0977-0.70461 2.7815 2.8391 1.1789 2.6338-1.1492 1.2491-3.3738 8.6786-1.5286 6.9536 0.24784-3.3509-1.3545-3.014 1.9343-2.933 3.1204 2.8318-1.1798 6.4299-1.4196 9.9191-1.4734 5.7328-0.08851 10.795 4.0044 15.136 7.5175 4.1943 3.3944 7.2296 8.0666 10.349 12.456 0.8304 1.1683 1.7373 2.4104 1.6583 4.0355-0.0822 1.6915-1.4268 1.0953-2.7156 0.23353-0.70986-2.2141-1.0049-2.9906-2.3622-5.3763-7.5556-5.963-18.073-11.25-25.11-14.265-7.037-3.0146-11.268-1.3836-15.77 2.4355-2.2007 1.8669-3.4647 7.3647-3.81 7.2943-0.67054-4.398-3.259-9.1684-8.3206-9.0504-2.3618 0.05503-5.9807-1.4687-5.9859-3.1008-0.87058-0.84271-1.6445-1.2783-2.3269-2.388-1.871-3.0423-6.5915-4.1987-10.253-3.7874-5.6706 0.63705-9.029 5.4066-11.426 10.303-2.8765 5.8753-4.278 13.022-9.4338 17.493-0.95337 2.5941-2.8183 3.7045-2.5094 6.5983 0.42761 1.6013-1.441 3.2119-2.3791 1.0104l0.94961-6.0277c3.4901-4.7561 6.5092-9.8148 8.031-15.67 1.552-5.9717 3.8606-12.717 9.6082-16.117 4.5447-2.6885 9.7934-3.4945 14.83-1.7697 3.4698 1.1881 4.2244 5.5071 6.5438 6.2014 0.01727-3.0421-2.086-5.1162-4.226-6.3616-2.524-1.4689-5.4725-2.3769-8.4004-2.3217zm8.1713 13.954c1.5841 2.0573 6.5257 1.4138 6.9132 3.9613-4.0388 3.8415-4.0557 9.585-4.7592 14.715-0.68772 5.0145-0.11308 9.9979-0.71446 15.032-0.58874 4.9287-1.747 8.4134 0.6892 13.112-0.43362 1.6264-2.4023 1.969-2.9448 1.4267-1.1212-1.121-1.4271-3.6168-2.4499-4.8221-4.3467-6.6598-8.6345-14.003-8.4918-22.248 0.12204-7.0504 1.8952-15.284 8.4729-19.156 1.1083-0.65244 2.1638-1.3916 3.2848-2.0219zm28.092 1.9242c-2.4324 2.7996-5.8864 9.9167-5.4291 13.15 1.0719-1.7446 1.762-4.0085 3.144-6.5099 0.86248 8.3628 3.1744 19.177 5.5139 27.254 1.6894 5.8327 3.139 12.327 1.2563 18.266-0.76898 2.426-1.2159 2.2787-3.0259 1.0679-1.0852 3.5489-6.7437 1.9421-9.0607 0.0091-6.1137-5.1003-8.1241-10.691-10.999-17.885-2.9572-7.3987-4.9238-15.366-5.0429-23.308-0.05634-3.76 2.6485-11.155 7.113-9.513 4.1351 1.5208 4.3677 7.2042 5.2602 11.089 2.1691 9.4409 3.2852 17.079 5.875 26.146 1.4014 4.9063 2.3186 8.6097 3.9221 13.518 0.45209-0.33071-1.0541-6.8772-1.6032-9.1026-2.6876-10.893-4.7446-18.663-6.3429-29.735-0.68735-4.7614 0.08532-8.9637 4.4676-12.086 1.491-1.0624 3.1157-2.0939 4.9518-2.3599zm2.8689-0.09655c1.9677-0.17926 4.1472 0.58044 5.1315 1.7008 0.89267 2.4285 2.6853 4.0457 4.003 6.2351 1.2924 2.1475 1.902 2.8831 3.478 4.831-0.79804 2.3791-1.4139 1.5593-2.1949 1.0727-0.74047-0.71074-0.97646-0.95949-2.3756-2.0556-1.4176-1.1106-2.8941-1.4064-4.0666-1.8749-2.7168-1.0854-6.5206-2.4983-8.5008-4.0945 0.86962-2.4301 2.8092-5.1276 4.5254-5.8146z" color="#000000" color-rendering="auto" fill="#ad9000" image-rendering="auto" shape-rendering="auto" solid-color="#000000" style="block-progression:tb;isolation:auto;mix-blend-mode:normal;text-decoration-color:#000000;text-decoration-line:none;text-decoration-style:solid;text-indent:0;text-transform:none;white-space:normal"/>
  <path d="m41.625 37.174-0.5 8.125s-2.875-0.875-3.25-1.75-4.5-4.625-4.5-4.625c0.69116-2.2062 6.1421 1.0015 6.5-2.75z" fill="url(#q)" opacity=".32"/>
  <path d="m64.767 0.87233c-4.0012 0.24914-8.1105 2.5259-11.056 5.0764-5.1868 4.492-8.9178 11.434-10.739 17.941-1.3919 4.9729-1.7739 9.4512-2.5595 14.57-0.3681 2.3986-0.28218 3.0957 0.05071 5.6866 0.30028 0.55185 1.1191 1.202 1.7104 1.2167-0.16363-6.1742 0.29477-13.249 1.8629-19.043 1.8736-6.9228 5.4883-13.239 10.922-18.21 2.691-2.4619 5.8412-4.9951 9.5781-5.3436 2.2666-0.21138 4.395-0.00152 5.9496 2.072 1.0773 1.4369 0.38014 3.3131-0.17727 4.7336-2.5245 6.4337-5.5925 11.884-7.8428 18.418-1.2899 3.7452-2.1564 7.871-2.5762 11.834-0.25195 2.3784-0.57725 3.5304 0.19255 5.7372 0.51182-0.39753 2.01-0.11286 1.418-1.0231-1.6783-1.4816-0.43494-3.8412-0.08168-6.3633 1.1396-8.136 4.8453-15.815 8.0461-23.095 1.3744-3.126 3.001-5.8612 3.9562-9.15 0.55302-1.904-1.2045-3.6914-2.7944-4.4486-1.8088-0.86154-3.9189-0.72957-5.8605-0.60867z" color="#000000" color-rendering="auto" fill="#c6a287" image-rendering="auto" shape-rendering="auto" solid-color="#000000" style="block-progression:tb;isolation:auto;mix-blend-mode:normal;text-decoration-color:#000000;text-decoration-line:none;text-decoration-style:solid;text-indent:0;text-transform:none;white-space:normal"/>
 </g>
</svg>
