<?xml version="1.0" encoding="utf-8"?>
<!-- Generator: Adobe Illustrator 26.2.1, SVG Export Plug-In . SVG Version: 6.00 Build 0)  -->
<svg version="1.1" id="Ebene_1" xmlns="http://www.w3.org/2000/svg" xmlns:xlink="http://www.w3.org/1999/xlink" x="0px" y="0px"
	 viewBox="0 0 1300 900" style="enable-background:new 0 0 1300 900;" xml:space="preserve">
<style type="text/css">
	.st0{fill:#000201;}
	.st1{fill:#24282B;}
	.st2{fill:#383D43;}
	.st3{fill:#32353A;}
	.st4{fill:#020202;}
	.st5{fill:#393E42;}
	.st6{fill:#464A56;}
	.st7{fill:#7DFFBB;}
	.st8{fill:none;stroke:#FFA14D;stroke-width:3;stroke-miterlimit:10;}
	.st9{fill:#1A89D3;}
	.st10{fill:#FF92E0;}
	.st11{fill:#4F535E;}
	.st12{fill:#030303;}
	.st13{fill:#1A1B1F;}
	.st14{fill:#4F535F;}
</style>
<g>
	<path class="st0" d="M386.7,157.8v-17.4c0,0-27.9-11.6-65.5-11.6s-64.7,18.6-64.7,18.6v15.3L386.7,157.8z"/>
	<path class="st0" d="M907.8,157.8v-17.4c0,0,27.9-11.6,65.5-11.6s64.7,18.6,64.7,18.6v15.3L907.8,157.8z"/>
	<g>
		<path class="st1" d="M1153.4,680.1c8.9-6.8,16.6-25,23-46c-2.7-49.6-13.6-115.1-28.5-198.3c-28.6-160-81.8-251.2-100.5-272.9
			c-18.6-21.7-46.5-17.3-63.2-21.1c-16.7-3.7-76.2,13.1-92.9,18.7c-16.7,5.6-66.7,0.2-66.7,0.2l-177.4,1.7l-177.6-1.7
			c0,0-50.1,5.4-66.8-0.2c-16.7-5.6-76.2-22.4-93-18.7c-16.7,3.7-44.6-0.7-63.2,21.1c-18.6,21.7-71.8,112.9-100.5,272.9
			c-14.7,82.4-25.7,147.5-28.4,196.9c6.4,21.6,14.3,40.4,23.4,47.3c26.1,19.9,78.2,40.9,143.9,39.7c19.9-0.4,37.3-2.8,51.9-6
			c21.9-64,34.2-139.4,51.2-149.6c18.6-11.2,17.7-13.4,23.4-12.2c5.7,1.2,28.5,19.8,56.1,20.6c27.6,0.8,49.3-3.4,60.8-10.7
			c11.5-7.3,18.8-16.9,21.4-17.1c1.4-0.1,35.2-0.1,67.6-0.1v0.1c0,0,12.5,0,29.7,0c17.2,0,29.8,0,29.8,0v-0.1c32.3,0,66,0,67.4,0.1
			c2.6,0.2,9.7,9.8,21.2,17.1c11.5,7.3,33.2,11.5,60.8,10.7s50.4-19.4,56.1-20.6c5.7-1.2,4.8,1,23.4,12.2
			c17,10.2,29.3,85.5,51.1,149.5c14.7,3.3,32.3,5.7,52.4,6.1C1075.3,721.1,1127.4,700,1153.4,680.1z"/>
		<path class="st2" d="M141.1,680.1c-9.1-6.9-17-25.8-23.4-47.3c-2.6,46.5,1.9,79.1,17.3,98.9c31.6,40.9,48,51.3,81.9,57.1
			c23.2,4,87.5,9.9,113.5-57.1c2.3-5.8,4.4-11.8,6.5-17.9c-14.6,3.2-32,5.6-51.9,6C219.2,721.1,167.1,700,141.1,680.1z"/>
		<path class="st2" d="M1077.1,788.9c28.9-5,50.3-16.2,81.9-57.1c15.2-19.7,19.8-51.8,17.4-97.6c-6.3,21-14.1,39.2-23,46
			c-26.1,19.9-78.2,40.9-143.9,39.7c-20.2-0.4-37.7-2.9-52.4-6.1c2.1,6.1,4.3,12.2,6.5,18C989.7,798.7,1060.6,791.8,1077.1,788.9z"
			/>
	</g>
	<circle cx="311.4" cy="308" r="125.3"/>
	<circle cx="982.6" cy="308" r="125.3"/>
	<g>
		<path class="st3" d="M575.6,466.1c0,55.4-44.9,100.3-100.3,100.3S375,521.5,375,466.1c0-15.1,3.3-29.3,9.3-42.1l51.3-50
			c12.2-5.3,25.6-8.2,39.7-8.2C530.7,365.9,575.6,410.8,575.6,466.1z"/>
		<circle class="st4" cx="477.6" cy="457.2" r="66.6"/>
		<circle class="st5" cx="477.6" cy="457.2" r="61.6"/>
		<circle class="st3" cx="477.6" cy="457.2" r="42"/>
	</g>
	<g>
		<path class="st3" d="M718.5,466.1c0,55.4,44.9,100.3,100.3,100.3c55.4,0,100.3-44.9,100.3-100.3c0-15.1-3.3-29.3-9.3-42.1
			l-51.3-50c-12.2-5.3-25.6-8.2-39.7-8.2C763.4,365.9,718.5,410.8,718.5,466.1z"/>
		<circle class="st4" cx="816.5" cy="457.2" r="66.6"/>
		<circle class="st5" cx="816.5" cy="457.2" r="61.6"/>
		<circle class="st3" cx="816.5" cy="457.2" r="42"/>
	</g>
	<circle class="st6" cx="981.9" cy="234.4" r="33.2"/>
	<circle class="st6" cx="1061.3" cy="310.7" r="33.2"/>
	<circle class="st6" cx="985" cy="390.7" r="33.2"/>
	<circle class="st6" cx="905" cy="310.7" r="33.2"/>
	<g>
		<path class="st7" d="M1005.2,250h-47.3l24-41.6L1005.2,250z M964.3,246h34.5l-17-30.4L964.3,246z"/>
	</g>
	<circle class="st8" cx="1061.3" cy="310.7" r="21.7"/>
	<polygon class="st9" points="1004.6,373.8 1002,371.2 985.3,387.8 968.6,371.2 966,373.8 982.7,390.5 966,407.1 968.6,409.8 
		985.3,393.1 1002,409.8 1004.6,407.1 987.9,390.5 	"/>
	<g>
		<path class="st10" d="M925,332h-41v-41h41V332z M888,328h34v-34h-34V328z"/>
	</g>
	<g>
		<path class="st11" d="M292,227.3h34.1c6.3,0,11.4,5.1,11.4,11.4v29.8c0,3-1.2,5.9-3.3,8.1l-16.5,16.5c-4.4,4.4-11.7,4.4-16.1,0
			L284.5,276c-2.1-2.1-3.3-4.9-3.3-7.9l-0.5-29.3C280.5,232.5,285.6,227.3,292,227.3z"/>
		<path class="st11" d="M393.2,295.8v34.1c0,6.3-5.1,11.4-11.4,11.4h-29.8c-3,0-5.9-1.2-8.1-3.3l-16.5-16.5
			c-4.4-4.4-4.4-11.7,0-16.1l17.1-17.1c2.1-2.1,4.9-3.3,7.9-3.3l29.3-0.5C388,284.3,393.2,289.4,393.2,295.8z"/>
		<path class="st11" d="M224.6,329.9v-34.1c0-6.3,5.1-11.4,11.4-11.4h29.8c3,0,5.9,1.2,8.1,3.3l16.5,16.5c4.4,4.4,4.4,11.7,0,16.1
			l-17.1,17.1c-2.1,2.1-4.9,3.3-7.9,3.3l-29.3,0.5C229.8,341.4,224.6,336.2,224.6,329.9z"/>
		<path class="st11" d="M326.1,398.1H292c-6.3,0-11.4-5.1-11.4-11.4V357c0-3,1.2-5.9,3.3-8.1l16.5-16.5c4.4-4.4,11.7-4.4,16.1,0
			l17.1,17.1c2.1,2.1,3.3,4.9,3.3,7.9l0.5,29.3C337.6,392.9,332.5,398.1,326.1,398.1z"/>
		<path class="st11" d="M301,218.6h21c2.5,0,3.8-3.1,2-4.9l-10.5-10.5c-1.1-1.1-2.9-1.1-4,0l-10.5,10.5
			C297.1,215.6,298.4,218.6,301,218.6z"/>
		<path class="st11" d="M216.3,323.3v-21c0-2.5-3.1-3.8-4.9-2l-10.5,10.5c-1.1,1.1-1.1,2.9,0,4l10.5,10.5
			C213.2,327.1,216.3,325.8,216.3,323.3z"/>
		<path class="st11" d="M319.5,408.1h-21c-2.5,0-3.8,3.1-2,4.9l10.5,10.5c1.1,1.1,2.9,1.1,4,0l10.5-10.5
			C323.4,411.1,322.1,408.1,319.5,408.1z"/>
		<path class="st11" d="M406.6,304v21c0,2.5,3.1,3.8,4.9,2l10.5-10.5c1.1-1.1,1.1-2.9,0-4L411.5,302
			C409.7,300.2,406.6,301.4,406.6,304z"/>
	</g>
	<g>
		<circle class="st12" cx="646.1" cy="465.5" r="30.4"/>
		<circle class="st12" cx="609" cy="388.1" r="4.9"/>
		<circle class="st12" cx="627.8" cy="388.1" r="4.9"/>
		<circle class="st12" cx="647.2" cy="388.1" r="4.9"/>
		<circle class="st12" cx="666.1" cy="388.1" r="4.9"/>
		<circle class="st12" cx="685" cy="388.1" r="4.9"/>
		<circle class="st12" cx="618" cy="401.9" r="4.9"/>
		<circle class="st12" cx="637.6" cy="401.9" r="4.9"/>
		<circle class="st12" cx="657" cy="401.9" r="4.9"/>
		<circle class="st12" cx="676.5" cy="401.9" r="4.9"/>
		<circle class="st12" cx="627.8" cy="415.7" r="4.9"/>
		<circle class="st12" cx="647.2" cy="415.7" r="4.9"/>
		<circle class="st12" cx="666.7" cy="415.7" r="4.9"/>
	</g>
	<path class="st13" d="M810.4,348.3H484c-6.6,0-12-5.4-12-12V167.4c0-6.6,5.4-12,12-12h326.5c6.6,0,12,5.4,12,12v168.9
		C822.4,342.9,817,348.3,810.4,348.3z"/>
	<path class="st14" d="M875.3,236.4h-11.6c-6.6,0-12-5.4-12-12v-36c0-6.6,5.4-12,12-12h11.6c6.6,0,12,5.4,12,12v36
		C887.3,231,881.9,236.4,875.3,236.4z"/>
	<path class="st14" d="M440.4,240.5h-11.6c-6.6,0-12-5.4-12-12v-36c0-6.6,5.4-12,12-12h11.6c6.6,0,12,5.4,12,12v36
		C452.4,235.1,447,240.5,440.4,240.5z"/>
</g>
</svg>
