<?xml version="1.0" encoding="UTF-8"?><svg id="a" xmlns="http://www.w3.org/2000/svg" xmlns:xlink="http://www.w3.org/1999/xlink" viewBox="0 0 414.42 263.13"><defs><style>.c{fill:#fff;}.d{fill:#ffd500;}.e{fill:#e5bf00;}.f{fill:#e1e1e1;}.g{filter:url(#b);}</style><filter id="b" x="-.030351" y="-.044232" width="1.0607" height="1.0885"><feGaussianBlur stdDeviation="7.1806696"/></filter></defs><path class="e" d="M210.13,0c-7.87,0-14.25,6.17-14.57,13.96H9.93C4.43,13.96,0,18.39,0,23.89V253.2c0,5.5,4.43,9.93,9.93,9.93H331.79c5.5,0,9.93-4.43,9.93-9.93V23.89c0-1.36-.27-2.65-.76-3.83,.03-.35,.04-.71,.04-1.07v-4.41C341,6.51,334.49,0,326.41,0h-116.29Z"/><rect class="c" x="11.82" y="35.77" width="307.37" height="210.91"/><g class="g"><rect class="f" x="17.76" y="40.94" width="307.37" height="210.91"/></g><rect class="c" x="21.01" y="44.19" width="307.37" height="210.91"/><path class="d" d="M84.97,30.89H407.23c5.37,0,8.38,4.14,6.73,9.25l-69.25,213.73c-1.66,5.11-7.35,9.25-12.72,9.25H9.72c-5.37,0-8.38-4.14-6.73-9.25L72.25,40.14c1.66-5.11,7.35-9.25,12.72-9.25Z"/></svg>