<?xml version="1.0" encoding="UTF-8"?>
<svg viewBox="0 0 63.177734 63.177723" xmlns="http://www.w3.org/2000/svg">
 <defs>
  <linearGradient id="c" x1="441.14" x2="512.35" y1="-153.07" y2="-154.05" gradientUnits="userSpaceOnUse">
   <stop stop-color="#1c97e1" offset="0"/>
   <stop stop-color="#006798" offset="1"/>
  </linearGradient>
  <linearGradient id="b" x1="1313.4" x2="1333" y1="237.96" y2="258.77" gradientTransform="matrix(.6386 0 0 1.5659 -399.07 -160.9)" gradientUnits="userSpaceOnUse">
   <stop stop-color="#fff" stop-opacity=".72656" offset="0"/>
   <stop stop-color="#fff" offset="1"/>
  </linearGradient>
  <linearGradient id="a" x1="409.11" x2="433.67" y1="200.34" y2="237.8" gradientUnits="userSpaceOnUse">
   <stop stop-color="#fff" offset="0"/>
   <stop stop-color="#fff" stop-opacity="0" offset="1"/>
  </linearGradient>
 </defs>
 <g transform="translate(-415.03 -196.71)">
  <path transform="rotate(45)" d="m459.15-178.46h36.18a6 6 0 0 1 6 6v36.18a6 6 0 0 1 -6 6h-36.18a6 6 0 0 1 -6 -6v-36.18a6 6 0 0 1 6 -6" fill="#166496"/>
  <path transform="rotate(45)" d="m458.81-175.8h36.857a3 3 0 0 1 3 3v36.857a3 3 0 0 1 -3 3h-36.857a3 3 0 0 1 -3 -3v-36.857a3 3 0 0 1 3 -3" fill="url(#c)" stroke="#fff" stroke-width="1.1875"/>
  <path d="m449.73 220.52h-1.6164c-2.9 0.52294-4.4688 0.76064-6.9884 0.95081v1.4262l0.95081 0.09508c2.4721 0.2377 3.1377 1.0934 3.1377 3.9459v11.172c0 2.6147-0.85573 3.7082-2.9475 3.9459l-1.1885 0.09508v1.4262h12.741v-1.4262l-1.141-0.09508c-2.1393-0.23771-2.9475-1.3311-2.9475-3.9459v-17.59m-2.1869-8.0343c-1.6164 0-2.9 1.2836-2.9 2.8524 0 1.6164 1.2836 2.9 2.8524 2.9 1.6164 0 2.9-1.2836 2.9-2.8524s-1.2836-2.9-2.8524-2.9" fill="url(#b)"/>
  <path d="m446.61 199.23c-0.76686 0-1.5374 0.2874-2.125 0.875l-26.062 26.062c-1.1752 1.1752-1.1752 3.0748 0 4.25l16.656 16.656c0.04263-17.367 11.742-31.565 26.812-33.812l-13.156-13.156c-0.58761-0.58761-1.3581-0.875-2.125-0.875z" fill="url(#a)"/>
 </g>
</svg>
