<?xml version="1.0" encoding="utf-8"?>
<!-- Generator: Adobe Illustrator 26.2.1, SVG Export Plug-In . SVG Version: 6.00 Build 0)  -->
<svg version="1.1" xmlns="http://www.w3.org/2000/svg" xmlns:xlink="http://www.w3.org/1999/xlink" x="0px" y="0px"
	 viewBox="0 0 261.2 170.9" style="enable-background:new 0 0 261.2 170.9;" xml:space="preserve">
<style type="text/css">
	.st0{fill:#FFFFFF;}
	.st1{fill:none;stroke:#000000;stroke-width:0.25;stroke-miterlimit:10;}
	.st2{display:none;}
	.st3{display:inline;}
	.st4{display:inline;fill:none;stroke:url(#SVGID_1_);stroke-width:2.8;}
	.st5{display:none;fill:#FFE680;stroke:url(#SVGID_00000163066762824323088770000017350028026777868202_);stroke-width:2.8;}
	.st6{fill:none;stroke:url(#SVGID_00000078042506959969632290000005342419639863688124_);stroke-width:2.8;}
	.st7{fill:#FFFFFF;stroke:url(#SVGID_00000114057133444158065250000011285006731020621702_);stroke-width:2.8;}
	.st8{display:inline;fill:none;stroke:url(#SVGID_00000078751021959595719150000017777204962740198820_);stroke-width:2.8;}
	.st9{display:none;fill:#FFE680;stroke:url(#SVGID_00000086667709829663054340000004631507902346298815_);stroke-width:2.8;}
	.st10{opacity:0.5;fill:#83220C;enable-background:new    ;}
</style>
<g id="Layer_2">
	<g>
		
			<image style="overflow:visible;opacity:0.75;" width="154" height="154" xlink:href="81A277C2CBE0038C.png"  transform="matrix(1 0 0 1 61 16.9)">
		</image>
		<g>
			<rect x="69.5" y="25.6" class="st0" width="123" height="123"/>
			<rect x="69.5" y="25.6" class="st1" width="123" height="123"/>
		</g>
	</g>
</g>
<g id="Layer_1">
	<g id="Layer_1_00000052067513871207839170000002582345622643227065_">
		<g transform="matrix(.31194 0 0 .35145 -157.24 18.093)">
			<g class="st2">
				<path class="st3" d="M738.8-32.9c-3.5,0-6.4,4-6.4,9V1.7h-30.3c-3.5,0-6.3,4.2-6.3,9.4v373h441.5v-373c0-5.2-2.8-9.4-6.3-9.4
					H867.4V-24c0-5-2.9-9-6.4-9L738.8-32.9L738.8-32.9z"/>
				
					<radialGradient id="SVGID_1_" cx="51466.0195" cy="23488.5215" r="373.7143" gradientTransform="matrix(6.525785e-02 0 0 6.909507e-02 -2412.355 -1447.391)" gradientUnits="userSpaceOnUse">
					<stop  offset="0" style="stop-color:#000000"/>
					<stop  offset="1" style="stop-color:#000000;stop-opacity:0"/>
				</radialGradient>
				<path class="st4" d="M738.8-32.9c-3.5,0-6.4,4-6.4,9V1.7h-30.3c-3.5,0-6.3,4.2-6.3,9.4v373h441.5v-373c0-5.2-2.8-9.4-6.3-9.4
					H867.4V-24c0-5-2.9-9-6.4-9L738.8-32.9L738.8-32.9z"/>
			</g>
			
				<radialGradient id="SVGID_00000103978937158668986910000014684713887634253214_" cx="51467.9609" cy="23488.5215" r="375.1863" gradientTransform="matrix(6.525785e-02 0 0 6.909507e-02 -2412.355 -1447.391)" gradientUnits="userSpaceOnUse">
				<stop  offset="0" style="stop-color:#000000"/>
				<stop  offset="1" style="stop-color:#000000;stop-opacity:0"/>
			</radialGradient>
			
				<path style="display:none;fill:#FFE680;stroke:url(#SVGID_00000103978937158668986910000014684713887634253214_);stroke-width:2.8;" d="
				M738.8-32.9c-3.5,0-6.4,4-6.4,9V1.7h-30.3c-3.5,0-6.3,4.2-6.3,9.4v373h441.5v-373c0-5.2-2.8-9.4-6.3-9.4H867.4V-24
				c0-5-2.9-9-6.4-9L738.8-32.9L738.8-32.9z"/>
			<g>
				<rect x="850.2" y="139.3" width="131.9" height="127.4"/>
				
					<radialGradient id="SVGID_00000054972773661699437510000003732478638662770320_" cx="51465.9102" cy="23489.6406" r="373.5882" gradientTransform="matrix(6.525785e-02 0 0 6.909507e-02 -2412.355 -1447.391)" gradientUnits="userSpaceOnUse">
					<stop  offset="0" style="stop-color:#000000"/>
					<stop  offset="1" style="stop-color:#000000;stop-opacity:0"/>
				</radialGradient>
				
					<rect x="850.2" y="139.3" style="fill:none;stroke:url(#SVGID_00000054972773661699437510000003732478638662770320_);stroke-width:2.8;" width="131.9" height="127.4"/>
			</g>
			
				<radialGradient id="SVGID_00000000203929775532475360000007958687226385689475_" cx="51453.3711" cy="23426.75" r="375.2248" gradientTransform="matrix(6.525785e-02 0 0 6.909507e-02 -2412.355 -1447.391)" gradientUnits="userSpaceOnUse">
				<stop  offset="0" style="stop-color:#000000"/>
				<stop  offset="1" style="stop-color:#000000;stop-opacity:0"/>
			</radialGradient>
			<path style="fill:#FFFFFF;stroke:url(#SVGID_00000000203929775532475360000007958687226385689475_);stroke-width:2.8;" d="
				M703.7,17.5h422.8V380H703.7V17.5z"/>
			<g class="st2">
				<polygon class="st3" points="773.5,55 1197.2,59 1138.2,384.2 696.7,384.2 				"/>
				
					<radialGradient id="SVGID_00000160182223963326924150000004607248130908886925_" cx="51477.2773" cy="23490.9414" r="372.9218" gradientTransform="matrix(6.525785e-02 0 0 6.909507e-02 -2412.355 -1447.391)" gradientUnits="userSpaceOnUse">
					<stop  offset="0" style="stop-color:#000000"/>
					<stop  offset="1" style="stop-color:#000000;stop-opacity:0"/>
				</radialGradient>
				
					<polygon style="display:inline;fill:none;stroke:url(#SVGID_00000160182223963326924150000004607248130908886925_);stroke-width:2.8;" points="
					773.5,55 1197.2,59 1138.2,384.2 696.7,384.2 				"/>
			</g>
			
				<radialGradient id="SVGID_00000080166943227017521020000011437141027340418999_" cx="51477.2773" cy="23487.8594" r="374.5928" gradientTransform="matrix(6.525785e-02 0 0 6.909507e-02 -2412.355 -1447.391)" gradientUnits="userSpaceOnUse">
				<stop  offset="0" style="stop-color:#000000"/>
				<stop  offset="1" style="stop-color:#000000;stop-opacity:0"/>
			</radialGradient>
			
				<path style="display:none;fill:#FFE680;stroke:url(#SVGID_00000080166943227017521020000011437141027340418999_);stroke-width:2.8;" d="
				M773.5,55l423.7,4l-59,325.2H696.7L773.5,55L773.5,55z"/>
		</g>
	</g>
	<g id="Layer_2_00000147906529303441962590000012099043702171634111_">
		<path class="st10" d="M150.4,50c-10.6,2.3-35.5,7.9-36.5,8.1c-1.3,0.3-4,0.6-4,4.1v46.6c-2.9-1.6-7.3-1.8-11.7-0.3
			c-6.6,2.4-10.6,7.8-9,12.1c1.6,4.3,8.1,5.9,14.7,3.6c6.1-2.2,10-7,9.3-11.2V77.7c0-1.9,0-4.4,5-5.5c2.3-0.5,33.8-7.5,33.8-7.5
			v32.6c-2.9-1.7-7.4-1.9-11.8-0.3c-6.6,2.4-10.6,7.8-9,12.1c1.6,4.3,8.1,5.9,14.7,3.6c6-2.2,9.9-6.9,9.3-11h0.1v-45
			c0-5.6,3.9-5.7,3.9-5.7v-3.1L150.4,50L150.4,50z"/>
	</g>
</g>
</svg>
