<?xml version="1.0" encoding="utf-8"?>
<!-- Generator: Adobe Illustrator 26.2.1, SVG Export Plug-In . SVG Version: 6.00 Build 0)  -->
<svg version="1.1" xmlns="http://www.w3.org/2000/svg" xmlns:xlink="http://www.w3.org/1999/xlink" x="0px" y="0px"
	 viewBox="0 0 50.1 67.7" style="enable-background:new 0 0 50.1 67.7;" xml:space="preserve">
<style type="text/css">
	.st0{fill-rule:evenodd;clip-rule:evenodd;fill:#FF9999;}
	.st1{fill-rule:evenodd;clip-rule:evenodd;fill:#FF6666;}
	.st2{fill:#FFFFFF;}
</style>
<g id="Layer_2">
	
		<image style="overflow:visible;opacity:0.59;" width="74" height="90" xlink:href="../../../../../../Users/kristinnefragata/Downloads/C639009B912D36FC.png"  transform="matrix(1 0 0 1 -10.8063 -8.6052)">
	</image>
</g>
<g id="Layer_1" shape-rendering="geometricPrecision" text-rendering="geometricPrecision" image-rendering="optimizeQuality">
	<g>
		
			<image style="overflow:visible;opacity:0.6;" width="74" height="90" xlink:href="24BAA55C72EDAA1.png"  transform="matrix(1 0 0 1 -5 -4.3484)">
		</image>
		<g>
			<path class="st0" d="M4.9,4.6h29.6L46.7,18v43.5c0,1.1-0.8,1.9-1.8,1.9H4.9c-1,0-1.8-0.9-1.8-1.9v-55C3.1,5.4,3.9,4.6,4.9,4.6z"
				/>
		</g>
	</g>
	<path class="st1" d="M46.7,18H36.2c-1,0-1.8-0.9-1.8-1.9V4.6L46.7,18z"/>
	<path class="st2" d="M13.5,35.9c0.3,0,0.6,0.1,0.8,0.3c0.2,0.2,0.3,0.5,0.3,0.8c0,0.3-0.1,0.6-0.3,0.8c-0.2,0.2-0.5,0.4-0.8,0.4
		c-0.3,0-0.6-0.1-0.8-0.4c-0.2-0.2-0.3-0.5-0.3-0.8c0-0.3,0.1-0.6,0.3-0.8C12.9,36,13.2,35.9,13.5,35.9z M18.6,30v0.9
		c0.4-0.4,0.8-0.6,1.2-0.8c0.4-0.2,0.9-0.3,1.4-0.3c1,0,1.9,0.4,2.7,1.2c0.7,0.8,1.1,1.8,1.1,3c0,1.2-0.4,2.2-1.1,3
		c-0.8,0.8-1.7,1.2-2.7,1.2c-0.5,0-0.9-0.1-1.3-0.3c-0.4-0.2-0.8-0.4-1.2-0.8v3.8h-2V30H18.6z M20.7,31.6c-0.6,0-1.2,0.2-1.6,0.6
		c-0.4,0.4-0.6,1-0.6,1.7c0,0.7,0.2,1.3,0.6,1.7c0.4,0.5,0.9,0.7,1.6,0.7c0.6,0,1.1-0.2,1.5-0.7c0.4-0.5,0.6-1,0.6-1.7
		s-0.2-1.3-0.6-1.7C21.9,31.9,21.4,31.6,20.7,31.6z M32.5,26.9h2V38h-2v-0.9c-0.4,0.4-0.8,0.6-1.2,0.8s-0.8,0.3-1.3,0.3
		c-1,0-1.9-0.4-2.7-1.2c-0.8-0.8-1.1-1.8-1.1-3c0-1.2,0.4-2.3,1.1-3c0.7-0.8,1.6-1.2,2.7-1.2c0.5,0,0.9,0.1,1.4,0.3
		c0.4,0.2,0.8,0.5,1.2,0.8V26.9z M30.4,31.6c-0.6,0-1.1,0.2-1.6,0.7c-0.4,0.4-0.6,1-0.6,1.7s0.2,1.3,0.6,1.7
		c0.4,0.4,0.9,0.7,1.6,0.7c0.6,0,1.2-0.2,1.6-0.7c0.4-0.4,0.6-1,0.6-1.7c0-0.7-0.2-1.3-0.6-1.7C31.6,31.9,31,31.6,30.4,31.6z
		 M35.6,30h0.7c0-1.1,0-1.7,0.1-1.9c0.1-0.4,0.2-0.8,0.6-1c0.3-0.3,0.8-0.4,1.3-0.4c0.4,0,0.9,0.1,1.4,0.3v1.5
		c-0.3-0.1-0.5-0.1-0.7-0.1c-0.2,0-0.4,0.1-0.5,0.2c-0.1,0.1-0.1,0.2-0.1,0.5l0,1h1.3v1.7h-1.3V38h-2v-6.3h-0.7V30z"/>
</g>
</svg>
